<svg height="64" width="64" xmlns="http://www.w3.org/2000/svg"><filter id="a" height="141.4%" width="145.3%" x="-22.7%" y="-20.7%"><feGaussianBlur in="SourceGraphic" stdDeviation="2.19"/></filter><filter id="b" height="144.8%" width="144.8%" x="-22.4%" y="-22.4%"><feGaussianBlur in="SourceGraphic" stdDeviation="2"/></filter><g fill="none" fill-rule="evenodd"><circle cx="28" cy="28" fill="#0052e2" r="28"/><path d="M38.5 48.5C28.5 50 24 50 15 40.5" stroke="#fff" stroke-dasharray="2"/><path d="M13 16h13a8 8 0 018 8v15.762a8 8 0 01-8 8H13a8 8 0 01-8-8V24a8 8 0 018-8z" fill="#363c4d" filter="url(#a)" opacity=".458" transform="translate(4)"/><path d="M7.5.738h31a3 3 0 013 3v34.524a3 3 0 01-3 3h-31a3 3 0 01-3-3V3.738a3 3 0 013-3z" fill="#609cff"/><path d="M13.39 26.78C5.995 26.78 0 20.785 0 13.39S5.995 0 13.39 0s13.39 5.995 13.39 13.39-5.995 13.39-13.39 13.39z" fill="#363c4d" filter="url(#b)" opacity=".558" transform="translate(31 32)"/><path d="M44.391 58.783C36.995 58.783 31 52.787 31 45.39 31 37.995 36.995 32 44.391 32s13.392 5.995 13.392 13.391-5.996 13.392-13.392 13.392z" fill="#fff"/><path d="M45.826 38.087a1.217 1.217 0 00-2.435 0v7.304c0 .323.129.633.357.861l3.652 3.652a1.217 1.217 0 101.722-1.721l-3.296-3.296z" fill="#deedfe"/><path d="M10.5 8h25m-25 6h25m-25 6h16" stroke="#fff" stroke-linecap="round" stroke-linejoin="round" stroke-width="2"/></g></svg>