<svg height="64" width="64" xmlns="http://www.w3.org/2000/svg"><filter id="a" height="141.4%" width="145.3%" x="-22.7%" y="-20.7%"><feGaussianBlur in="SourceGraphic" stdDeviation="2.19"/></filter><filter id="b" height="165.8%" width="140.5%" x="-20.2%" y="-32.9%"><feGaussianBlur in="SourceGraphic" stdDeviation="2"/></filter><g fill="none" fill-rule="evenodd"><circle cx="28" cy="28" fill="#0052e2" r="28"/><path d="M38.5 48.5C28.5 50 24 50 15 40.5" stroke="#fff" stroke-dasharray="2"/><path d="M13 16h13a8 8 0 018 8v15.762a8 8 0 01-8 8H13a8 8 0 01-8-8V24a8 8 0 018-8z" fill="#363c4d" filter="url(#a)" opacity=".458" transform="translate(4)"/><path d="M7.5.738h31a3 3 0 013 3v34.524a3 3 0 01-3 3h-31a3 3 0 01-3-3V3.738a3 3 0 013-3z" fill="#609cff"/><path d="M10.5 8h25m-25 6h25m-25 6h16" stroke="#fff" stroke-linecap="round" stroke-linejoin="round" stroke-width="2"/><path d="M30.846 12.234c0-1.046-.855-1.9-1.9-1.9H3.115c-1.046 0-1.9.854-1.9 1.9 0 .888.62 1.634 1.446 1.84L5.282 26.47c0 1.148.94 2.088 2.088 2.088h17.662c1.148 0 2.088-.94 2.088-2.088l2.65-12.533a1.9 1.9 0 001.076-1.704zM9.751 24.048a.654.654 0 01-.653.652h-.18a.655.655 0 01-.652-.652V16.41c0-.358.294-.652.652-.652h.18c.36 0 .653.294.653.652zm4.778 0a.654.654 0 01-.653.652h-.18a.655.655 0 01-.653-.652V16.41c0-.358.294-.652.653-.652h.18c.359 0 .653.294.653.652zm4.124.652h-.18a.654.654 0 01-.652-.652V16.41c0-.358.294-.652.653-.652h.18c.358 0 .652.294.652.652v7.638a.655.655 0 01-.653.652zm5.43-.652a.654.654 0 01-.652.652h-.18a.655.655 0 01-.652-.652V16.41c0-.358.293-.652.652-.652h.18c.36 0 .653.294.653.652v7.638z" fill="#363c4d" filter="url(#b)" opacity=".56" transform="translate(28 30)"/><path d="M44.074 30.429c5.683 0 10.36 4.277 11.004 9.787l-.007-.051h2.746c1.065 0 1.946.832 2.024 1.879l.005.15c0 .8-.473 1.49-1.15 1.82l-2.828 13.378a2.235 2.235 0 01-2.229 2.23H34.786a2.235 2.235 0 01-2.23-2.23L29.76 44.158a2.032 2.032 0 01-1.545-1.964c0-1.115.913-2.029 2.029-2.029h2.833c.667-5.485 5.333-9.736 10.998-9.736zm0 2.005c-4.573 0-8.345 3.384-8.977 7.782l.007-.051h17.94c-.64-4.285-4.265-7.596-8.696-7.727z" fill="#fff"/><path d="M37.327 54.806a.699.699 0 01-.697.696h-.192a.699.699 0 01-.696-.696v-8.153c0-.383.313-.696.696-.696h.192c.384 0 .697.313.697.696zm5.1 0a.699.699 0 01-.696.696h-.192a.699.699 0 01-.697-.696v-8.153c0-.383.313-.696.697-.696h.192c.383 0 .696.313.696.696zm5.1 0a.698.698 0 01-.697.696h-.191a.698.698 0 01-.697-.696v-8.153c0-.383.313-.696.697-.696h.192c.383 0 .696.313.696.696zm5.1 0a.698.698 0 01-.696.696h-.192a.699.699 0 01-.697-.696v-8.153c0-.383.314-.696.697-.696h.192c.383 0 .696.313.696.696z" fill="#deedfe"/></g></svg>